Source: Saving Private Ryan 1998 720p BluRay DTS x264-MELiTE

Subs: Arabic, Brazilian, Bulgarian, Chinese, Czech, Danish, Dutch, English, Estonian, Finnish, French, Greek, Indonesian, Italian, Persian, Polish, Romanian, Servian, Spanish, Swedish, Turkish and Vietnamese.

Sample and Screens included.

General
Complete name                    : Saving Private Ryan-720p MP4 AAC x264 BRRip 1998-CC.mp4
Format                           : MPEG-4
Format profile                   : Base Media
Codec ID                         : isom
File size                        : 2.69 GiB
Duration                         : 2h 48mn
Overall bit rate                 : 2 290 Kbps
Encoded date                     : UTC 2012-04-28 09:27:57

Video
ID                               : 1
Format                           : AVC
Format/Info                      : Advanced Video Codec
Format profile                   : High@L3.1
Format settings, CABAC           : Yes
Format settings, ReFrames        : 5 frames
Codec ID                         : avc1
Codec ID/Info                    : Advanced Video Coding
Duration                         : 2h 48mn
Bit rate mode                    : Variable
Bit rate                         : 1 901 Kbps
Nominal bit rate                 : 1 929 Kbps
Maximum bit rate                 : 45.5 Mbps
Width                            : 1 280 pixels
Height                           : 688 pixels
Display aspect ratio             : 1.860
Frame rate mode                  : Variable
Frame rate                       : 23.976 fps
Minimum frame rate               : 19.133 fps
Maximum frame rate               : 24.390 fps
Resolution                       : 24 bits
Colorimetry                      : 4:2:0
Scan type                        : Progressive
Bits/(Pixel*Frame)               : 0.090
Stream size                      : 2.23 GiB (83%)
Writing library                  : x264 core 112

Audio
ID                               : 2
Format                           : AAC
Format/Info                      : Advanced Audio Codec
Format version                   : Version 4
Format profile                   : LC
Format settings, SBR             : No
Codec ID                         : 40
Duration                         : 2h 48mn
Bit rate mode                    : Variable
Bit rate                         : 384 Kbps
Maximum bit rate                 : 539 Kbps
Channel(s)                       : 6 channels
Channel positions                : Front: L C R, Rear: L R, LFE
Sampling rate                    : 48.0 KHz
Resolution                       : 16 bits
Stream size                      : 462 MiB (17%)

Enjoy..

Requested by eidref.